<?xml version="1.0" encoding="UTF-8"?>
<svg xmlns="http://www.w3.org/2000/svg" width="850" height="421" viewBox="0 0 850 421" fill="none">
  <g clip-path="url(#clip0_6_175)">
    <path d="M127.536 63.752C127.536 98.9854 99.0176 127.504 63.7842 127.504C28.5508 127.504 0.0322266 98.9854 0.0322266 63.752C0.0322266 28.5185 28.5508 0 63.7842 0C99.0176 0 127.536 28.5185 127.536 63.752Z" fill="#E31019"></path>
    <path d="M127.457 358.101C127.457 340.327 118.53 322.868 107.628 310.386C99.4126 301.064 94.9887 295.218 94.7517 285.107C94.4357 273.336 106.996 261.012 111.42 255.087C120.189 244.422 127.378 230.913 127.378 212.902C127.378 178.063 98.3856 149.624 63.0732 149.624C29.3408 149.703 0.0322266 177.905 0.0322266 212.744C0.0322266 229.412 6.19413 245.054 15.358 255.324C20.6509 261.328 31.2367 273.573 30.9207 285.344C30.6047 295.376 28.6298 302.328 19.9399 311.018C7.22111 323.737 0.0322266 339.379 0.0322266 357.943C0.0322266 392.782 28.3928 421.221 63.2312 421.3C98.6226 421.458 127.457 392.94 127.457 358.101Z" fill="#37A7DF"></path>
    <path d="M189.8 43.2998H237.5L273.6 149.4H274L308.1 43.2998H355.9V197.5H324.1V88.1998H323.7L285.9 197.5H259.8L222 89.2998H221.5V197.5H189.8V43.2998Z" fill="#565351"></path>
    <path d="M457.6 129.7C454.8 114.2 448.1 105.9 433.2 105.9C413.8 105.9 408.2 121 407.7 129.7H457.6ZM407.7 149.2C408.6 168.6 418.1 177.5 435.1 177.5C447.4 177.5 457.4 169.9 459.3 163H486.3C477.7 189.3 459.3 200.6 434 200.6C398.8 200.6 377 176.4 377 141.9C377 108.4 400.1 82.8999 434 82.8999C472 82.8999 490.4 114.9 488.2 149.2H407.7Z" fill="#565351"></path>
    <path d="M559.3 106C539.2 106 532.3 123.3 532.3 141.6C532.3 159.1 540.3 177.5 559.3 177.5C579.6 177.5 585.7 159.8 585.7 141.4C585.6 123.2 579.2 106 559.3 106ZM586.1 183.3H585.7C578.6 195.4 566 200.6 551.8 200.6C518.1 200.6 501.7 171.7 501.7 140.8C501.7 110.8 518.3 82.8999 551.2 82.8999C564.4 82.8999 577.3 88.4999 584.2 99.4999H584.6V43.3999H615.3V197.6H586.1V183.3Z" fill="#565351"></path>
    <path d="M639.199 85.8998H669.899V197.6H639.199V85.8998ZM669.899 68.5998H639.199V43.2998H669.899V68.5998Z" fill="#565351"></path>
    <path d="M763.599 142.9C758.399 147.4 747.599 147.6 738.099 149.4C728.599 151.3 719.999 154.6 719.999 165.8C719.999 177.2 728.899 180.1 738.799 180.1C762.799 180.1 763.599 161.1 763.599 154.4V142.9ZM692.699 120.2C694.399 91.4998 720.099 82.7998 745.199 82.7998C767.499 82.7998 794.199 87.7998 794.199 114.5V172.6C794.199 182.8 795.299 192.9 798.099 197.4H766.999C765.899 194 765.099 190.3 764.799 186.6C755.099 196.7 740.799 200.4 727.199 200.4C705.999 200.4 689.199 189.8 689.199 166.9C689.199 141.6 708.199 135.6 727.199 133C745.999 130.2 763.499 130.8 763.499 118.3C763.499 105.1 754.399 103.2 743.599 103.2C731.899 103.2 724.399 108 723.299 120H692.699V120.2Z" fill="#565351"></path>
    <path d="M849.599 43.2998H818.899V197.5H849.599V43.2998Z" fill="#565351"></path>
    <path d="M187.1 264.6H270.8V274.4H198.6V318.2H266.2V328H198.6V375.9H271.6V385.7H187.1V264.6Z" fill="#898584"></path>
    <path d="M342.699 337.9H342.399C340.999 340.4 336.299 341.3 333.399 341.8C315.199 345 292.699 344.9 292.699 362C292.699 372.7 302.199 379.3 312.199 379.3C328.499 379.3 342.899 368.9 342.699 351.8V337.9ZM285.699 325C286.699 304.5 301.099 295.6 321.199 295.6C336.599 295.6 353.399 300.3 353.399 323.8V370.3C353.399 374.4 355.399 376.8 359.699 376.8C360.899 376.8 362.199 376.5 363.099 376.1V385.1C360.699 385.6 358.999 385.8 356.099 385.8C345.199 385.8 343.499 379.7 343.499 370.5H343.199C335.699 381.9 328.099 388.3 311.299 388.3C295.199 388.3 281.899 380.3 281.899 362.7C281.899 338.1 305.799 337.2 328.899 334.5C337.699 333.5 342.599 332.3 342.599 322.6C342.599 308.2 332.199 304.6 319.699 304.6C306.499 304.6 296.599 310.7 296.299 325H285.699Z" fill="#898584"></path>
    <path d="M375.799 298.2H385.599V318.7H385.899C391.299 304.6 403.199 296.3 418.999 297V307.7C399.699 306.7 386.399 320.9 386.399 339.1V385.8H375.699V298.2H375.799Z" fill="#898584"></path>
    <path d="M441.099 264.6H430.399V385.8H441.099V264.6Z" fill="#898584"></path>
    <path d="M452.8 298.2H464.2L493 372.9L520 298.2H530.7L492.7 399.2C486.6 414 483 418.2 469.6 418.2C465.4 418 463.2 418 461.5 417.4V408.4C464 408.9 466.4 409.2 468.8 409.2C478.3 409.2 480.5 403.6 484.1 395.5L487.8 385.5L452.8 298.2Z" fill="#898584"></path>
    <path d="M549.7 345.8C549.2 370.8 567.2 378.4 589.2 378.4C601.9 378.4 621.3 371.4 621.3 353.8C621.3 340.1 607.6 334.6 596.4 331.9L569.4 325.3C555.1 321.7 542.1 314.9 542.1 296.1C542.1 284.2 549.7 262 583.9 262C607.8 262 628.9 274.9 628.7 299.7H617.2C616.5 281.2 601.2 271.9 584.1 271.9C568.3 271.9 553.7 278 553.7 296C553.7 307.4 562.2 312.1 572 314.5L601.5 321.8C618.6 326.4 632.9 333.8 632.9 353.7C632.9 362 629.5 388.3 586.6 388.3C557.9 388.3 536.9 375.4 538.2 345.9H549.7V345.8Z" fill="#898584"></path>
    <path d="M650.3 298.2H661V385.8H650.3V298.2ZM650.3 264.6H661V281.7H650.3V264.6Z" fill="#898584"></path>
    <path d="M745.9 340.9C745.9 323.8 737.9 304.6 717.7 304.6C697.3 304.6 688.9 322.8 688.9 340.9C688.9 358.6 698.1 375.7 717.7 375.7C736.2 375.7 745.9 358.7 745.9 340.9ZM756.6 378.6C756.4 404.7 746.4 420.7 717.7 420.7C700.2 420.7 682.9 412.9 681.4 394.2H692.1C694.5 407.1 705.8 411.7 717.7 411.7C737.4 411.7 745.9 400 745.9 378.6V366.7H745.6C740.7 377.4 730.3 384.7 717.8 384.7C689.8 384.7 678.3 364.7 678.3 339.7C678.3 315.6 692.6 295.6 717.8 295.6C730.5 295.6 741.4 303.6 745.6 313.2H745.9V298.1H756.6V378.6Z" fill="#898584"></path>
    <path d="M777.8 298.2H788.5V313.3H788.8C792.7 302.8 804.4 295.7 816.8 295.7C841.4 295.7 848.9 308.6 848.9 329.5V385.8H838.2V331.2C838.2 316.1 833.3 304.7 816 304.7C799 304.7 788.8 317.6 788.5 334.7V385.8H777.8V298.2Z" fill="#898584"></path>
  </g>
  <defs>
    <clipPath id="clip0_6_175">
      <rect width="850" height="421" fill="white"></rect>
    </clipPath>
  </defs>
</svg>
